<mxfile host="app.diagrams.net" modified="2022-05-12T08:05:06.323Z" agent="5.0 (Windows NT 10.0; Win64; x64) AppleWebKit/537.36 (KHTML, like Gecko) Chrome/101.0.4951.54 Safari/537.36" etag="UXfnUhZM4U_uY6KK1VJV" version="18.0.2" type="github">
  <diagram id="C5RBs43oDa-KdzZeNtuy" name="Page-1">
    <mxGraphModel dx="1038" dy="539" grid="1" gridSize="10" guides="1" tooltips="1" connect="1" arrows="1" fold="1" page="1" pageScale="1" pageWidth="827" pageHeight="1169" math="0" shadow="0">
      <root>
        <mxCell id="WIyWlLk6GJQsqaUBKTNV-0" />
        <mxCell id="WIyWlLk6GJQsqaUBKTNV-1" parent="WIyWlLk6GJQsqaUBKTNV-0" />
        <mxCell id="pAnvcffPnqFIOocgXJU7-13" style="edgeStyle=orthogonalEdgeStyle;rounded=0;orthogonalLoop=1;jettySize=auto;html=1;exitX=0.5;exitY=1;exitDx=0;exitDy=0;entryX=0.5;entryY=0;entryDx=0;entryDy=0;fontFamily=宋体;fontSize=10.5;" edge="1" parent="WIyWlLk6GJQsqaUBKTNV-1" source="WIyWlLk6GJQsqaUBKTNV-3" target="WIyWlLk6GJQsqaUBKTNV-6">
          <mxGeometry relative="1" as="geometry" />
        </mxCell>
        <mxCell id="WIyWlLk6GJQsqaUBKTNV-3" value="输入车祸视频" style="rounded=1;whiteSpace=wrap;html=1;fontSize=10.5;glass=0;strokeWidth=1;shadow=0;fontFamily=宋体;" parent="WIyWlLk6GJQsqaUBKTNV-1" vertex="1">
          <mxGeometry x="160" y="80" width="120" height="40" as="geometry" />
        </mxCell>
        <mxCell id="pAnvcffPnqFIOocgXJU7-14" style="edgeStyle=orthogonalEdgeStyle;rounded=0;orthogonalLoop=1;jettySize=auto;html=1;exitX=0.5;exitY=1;exitDx=0;exitDy=0;fontFamily=宋体;fontSize=10.5;" edge="1" parent="WIyWlLk6GJQsqaUBKTNV-1" source="WIyWlLk6GJQsqaUBKTNV-6" target="pAnvcffPnqFIOocgXJU7-6">
          <mxGeometry relative="1" as="geometry" />
        </mxCell>
        <mxCell id="pAnvcffPnqFIOocgXJU7-19" style="edgeStyle=orthogonalEdgeStyle;rounded=0;orthogonalLoop=1;jettySize=auto;html=1;exitX=1;exitY=0.5;exitDx=0;exitDy=0;entryX=0;entryY=0.5;entryDx=0;entryDy=0;fontFamily=宋体;fontSize=10.5;" edge="1" parent="WIyWlLk6GJQsqaUBKTNV-1" source="WIyWlLk6GJQsqaUBKTNV-6" target="WIyWlLk6GJQsqaUBKTNV-7">
          <mxGeometry relative="1" as="geometry" />
        </mxCell>
        <mxCell id="WIyWlLk6GJQsqaUBKTNV-6" value="是否检测&lt;br style=&quot;font-size: 10.5px;&quot;&gt;到碰撞？" style="rhombus;whiteSpace=wrap;html=1;shadow=0;fontFamily=宋体;fontSize=10.5;align=center;strokeWidth=1;spacing=6;spacingTop=-4;" parent="WIyWlLk6GJQsqaUBKTNV-1" vertex="1">
          <mxGeometry x="170" y="140" width="100" height="80" as="geometry" />
        </mxCell>
        <mxCell id="WIyWlLk6GJQsqaUBKTNV-7" value="继续等待监控&lt;br style=&quot;font-size: 10.5px;&quot;&gt;视频传入" style="rounded=1;whiteSpace=wrap;html=1;fontSize=10.5;glass=0;strokeWidth=1;shadow=0;fontFamily=宋体;" parent="WIyWlLk6GJQsqaUBKTNV-1" vertex="1">
          <mxGeometry x="320" y="160" width="120" height="40" as="geometry" />
        </mxCell>
        <mxCell id="pAnvcffPnqFIOocgXJU7-17" style="edgeStyle=orthogonalEdgeStyle;rounded=0;orthogonalLoop=1;jettySize=auto;html=1;exitX=1;exitY=0.5;exitDx=0;exitDy=0;entryX=0;entryY=0.5;entryDx=0;entryDy=0;fontFamily=宋体;fontSize=10.5;" edge="1" parent="WIyWlLk6GJQsqaUBKTNV-1" source="pAnvcffPnqFIOocgXJU7-3" target="pAnvcffPnqFIOocgXJU7-5">
          <mxGeometry relative="1" as="geometry" />
        </mxCell>
        <mxCell id="pAnvcffPnqFIOocgXJU7-18" style="edgeStyle=orthogonalEdgeStyle;rounded=0;orthogonalLoop=1;jettySize=auto;html=1;exitX=0.5;exitY=1;exitDx=0;exitDy=0;entryX=0.5;entryY=0;entryDx=0;entryDy=0;fontFamily=宋体;fontSize=10.5;" edge="1" parent="WIyWlLk6GJQsqaUBKTNV-1" source="pAnvcffPnqFIOocgXJU7-3" target="pAnvcffPnqFIOocgXJU7-4">
          <mxGeometry relative="1" as="geometry" />
        </mxCell>
        <mxCell id="pAnvcffPnqFIOocgXJU7-3" value="人工审核是否&lt;br style=&quot;font-size: 10.5px;&quot;&gt;真正为事故？" style="rhombus;whiteSpace=wrap;html=1;shadow=0;fontFamily=宋体;fontSize=10.5;align=center;strokeWidth=1;spacing=6;spacingTop=-4;" vertex="1" parent="WIyWlLk6GJQsqaUBKTNV-1">
          <mxGeometry x="160" y="390" width="120" height="80" as="geometry" />
        </mxCell>
        <mxCell id="pAnvcffPnqFIOocgXJU7-4" value="舍弃本条信息" style="rounded=1;whiteSpace=wrap;html=1;fontSize=10.5;glass=0;strokeWidth=1;shadow=0;fontFamily=宋体;" vertex="1" parent="WIyWlLk6GJQsqaUBKTNV-1">
          <mxGeometry x="160" y="500" width="120" height="40" as="geometry" />
        </mxCell>
        <mxCell id="pAnvcffPnqFIOocgXJU7-5" value="向周边设备发送预警" style="rounded=1;whiteSpace=wrap;html=1;fontSize=10.5;glass=0;strokeWidth=1;shadow=0;fontFamily=宋体;" vertex="1" parent="WIyWlLk6GJQsqaUBKTNV-1">
          <mxGeometry x="320" y="410" width="120" height="40" as="geometry" />
        </mxCell>
        <mxCell id="pAnvcffPnqFIOocgXJU7-15" style="edgeStyle=orthogonalEdgeStyle;rounded=0;orthogonalLoop=1;jettySize=auto;html=1;exitX=0.5;exitY=1;exitDx=0;exitDy=0;entryX=0.5;entryY=0;entryDx=0;entryDy=0;fontFamily=宋体;fontSize=10.5;" edge="1" parent="WIyWlLk6GJQsqaUBKTNV-1" source="pAnvcffPnqFIOocgXJU7-6" target="pAnvcffPnqFIOocgXJU7-10">
          <mxGeometry relative="1" as="geometry" />
        </mxCell>
        <mxCell id="pAnvcffPnqFIOocgXJU7-6" value="整理车祸信息" style="rounded=1;whiteSpace=wrap;html=1;fontSize=10.5;glass=0;strokeWidth=1;shadow=0;fontFamily=宋体;" vertex="1" parent="WIyWlLk6GJQsqaUBKTNV-1">
          <mxGeometry x="160" y="250" width="120" height="40" as="geometry" />
        </mxCell>
        <mxCell id="pAnvcffPnqFIOocgXJU7-16" style="edgeStyle=orthogonalEdgeStyle;rounded=0;orthogonalLoop=1;jettySize=auto;html=1;exitX=0.5;exitY=1;exitDx=0;exitDy=0;entryX=0.5;entryY=0;entryDx=0;entryDy=0;fontFamily=宋体;fontSize=10.5;" edge="1" parent="WIyWlLk6GJQsqaUBKTNV-1" source="pAnvcffPnqFIOocgXJU7-10" target="pAnvcffPnqFIOocgXJU7-3">
          <mxGeometry relative="1" as="geometry" />
        </mxCell>
        <mxCell id="pAnvcffPnqFIOocgXJU7-10" value="发送给应用服务" style="rounded=1;whiteSpace=wrap;html=1;fontSize=10.5;glass=0;strokeWidth=1;shadow=0;fontFamily=宋体;" vertex="1" parent="WIyWlLk6GJQsqaUBKTNV-1">
          <mxGeometry x="160" y="320" width="120" height="40" as="geometry" />
        </mxCell>
        <mxCell id="pAnvcffPnqFIOocgXJU7-20" value="否" style="text;html=1;align=center;verticalAlign=middle;resizable=0;points=[];autosize=1;strokeColor=none;fillColor=none;fontSize=10.5;fontFamily=宋体;" vertex="1" parent="WIyWlLk6GJQsqaUBKTNV-1">
          <mxGeometry x="275" y="180" width="30" height="20" as="geometry" />
        </mxCell>
        <mxCell id="pAnvcffPnqFIOocgXJU7-22" value="是" style="text;html=1;align=center;verticalAlign=middle;resizable=0;points=[];autosize=1;strokeColor=none;fillColor=none;fontSize=10.5;fontFamily=宋体;" vertex="1" parent="WIyWlLk6GJQsqaUBKTNV-1">
          <mxGeometry x="215" y="220" width="30" height="20" as="geometry" />
        </mxCell>
        <mxCell id="pAnvcffPnqFIOocgXJU7-23" value="是" style="text;html=1;align=center;verticalAlign=middle;resizable=0;points=[];autosize=1;strokeColor=none;fillColor=none;fontSize=10.5;fontFamily=宋体;" vertex="1" parent="WIyWlLk6GJQsqaUBKTNV-1">
          <mxGeometry x="280" y="410" width="30" height="20" as="geometry" />
        </mxCell>
        <mxCell id="pAnvcffPnqFIOocgXJU7-24" value="否" style="text;html=1;align=center;verticalAlign=middle;resizable=0;points=[];autosize=1;strokeColor=none;fillColor=none;fontSize=10.5;fontFamily=宋体;" vertex="1" parent="WIyWlLk6GJQsqaUBKTNV-1">
          <mxGeometry x="215" y="470" width="30" height="20" as="geometry" />
        </mxCell>
      </root>
    </mxGraphModel>
  </diagram>
</mxfile>
